<?xml version="1.0" encoding="UTF-8"?>
<svg xmlns="http://www.w3.org/2000/svg" xmlns:xlink="http://www.w3.org/1999/xlink" viewBox="0 0 19 19" width="19px" height="19px">
<g id="surface289515377">
<path style=" stroke:none;fill-rule:nonzero;fill:rgb(100%,100%,100%);fill-opacity:1;" d="M 6.332031 1.898438 C 3.886719 1.898438 1.898438 3.890625 1.898438 6.335938 L 1.898438 12.667969 C 1.898438 15.113281 3.890625 17.101562 6.335938 17.101562 L 12.667969 17.101562 C 15.113281 17.101562 17.101562 15.109375 17.101562 12.664062 L 17.101562 6.332031 C 17.101562 3.886719 15.109375 1.898438 12.664062 1.898438 Z M 13.933594 4.433594 C 14.28125 4.433594 14.566406 4.71875 14.566406 5.066406 C 14.566406 5.417969 14.28125 5.699219 13.933594 5.699219 C 13.582031 5.699219 13.300781 5.417969 13.300781 5.066406 C 13.300781 4.71875 13.582031 4.433594 13.933594 4.433594 Z M 9.5 5.699219 C 11.59375 5.699219 13.300781 7.40625 13.300781 9.5 C 13.300781 11.59375 11.59375 13.300781 9.5 13.300781 C 7.40625 13.300781 5.699219 11.59375 5.699219 9.5 C 5.699219 7.40625 7.40625 5.699219 9.5 5.699219 Z M 9.5 6.964844 C 8.101562 6.964844 6.964844 8.101562 6.964844 9.5 C 6.964844 10.898438 8.101562 12.035156 9.5 12.035156 C 10.898438 12.035156 12.035156 10.898438 12.035156 9.5 C 12.035156 8.101562 10.898438 6.964844 9.5 6.964844 Z M 9.5 6.964844 "/>
</g>
</svg>
