<?xml version="1.0" encoding="UTF-8"?>
<svg xmlns="http://www.w3.org/2000/svg" xmlns:xlink="http://www.w3.org/1999/xlink" viewBox="0 0 19 19" width="19px" height="19px">
<g id="surface290396083">
<path style=" stroke:none;fill-rule:nonzero;fill:rgb(100%,100%,100%);fill-opacity:1;" d="M 15.578125 1.898438 C 13 1.898438 11.578125 3.34375 10.703125 6.160156 C 11.160156 5.992188 11.621094 5.78125 12.035156 5.78125 C 12.910156 5.78125 13.199219 6.105469 13.074219 7.117188 C 13.035156 7.746094 12.785156 8.765625 12.035156 9.941406 C 11.285156 11.078125 10.632812 11.398438 10.261719 11.398438 C 9.804688 11.398438 9.457031 10.742188 9.082031 8.976562 C 8.957031 8.472656 8.664062 7.335938 8.332031 5.191406 C 8.039062 3.214844 7.074219 2.152344 5.699219 2.28125 C 5.117188 2.320312 4.421875 2.863281 3.257812 3.871094 C 2.425781 4.628906 1.632812 5.175781 0.761719 5.933594 L 1.59375 7 C 2.382812 6.453125 2.839844 6.242188 2.964844 6.242188 C 3.546875 6.242188 4.089844 7.167969 4.628906 9.0625 C 5.085938 10.785156 5.585938 12.507812 6.042969 14.230469 C 6.75 16.125 7.625 17.046875 8.625 17.046875 C 10.289062 17.046875 12.285156 15.535156 14.65625 12.425781 C 16.984375 9.480469 18.15625 7.042969 18.238281 5.320312 C 18.324219 3.050781 17.410156 1.941406 15.578125 1.898438 Z M 15.578125 1.898438 "/>
</g>
</svg>
